<svg width="40" height="40" viewBox="0 0 40 40" fill="none" xmlns="http://www.w3.org/2000/svg">
<path d="M28.8398 35.025C30.8161 33.0542 32.3835 30.7122 33.4518 28.1337C34.52 25.5552 35.0682 22.791 35.0648 20C35.0682 17.2089 34.52 14.4447 33.4518 11.8662C32.3835 9.28775 30.8161 6.9458 28.8398 4.97498L27.0698 6.74248C28.8136 8.48145 30.1966 10.5479 31.1392 12.8231C32.0817 15.0983 32.5654 17.5373 32.5623 20C32.5623 25.1775 30.4623 29.865 27.0698 33.2575L28.8398 35.025V35.025Z" fill="white"/>
<path d="M25.3027 31.4901C26.8139 29.9829 28.0123 28.1919 28.8292 26.2201C29.6461 24.2482 30.0653 22.1344 30.0627 20.0001C30.0653 17.8657 29.6461 15.7519 28.8292 13.7801C28.0123 11.8083 26.8139 10.0173 25.3027 8.51007L23.5352 10.2776C24.8139 11.5529 25.8279 13.0684 26.5191 14.7369C27.2103 16.4054 27.5649 18.1941 27.5627 20.0001C27.5656 21.8063 27.2115 23.5953 26.5207 25.2643C25.83 26.9332 24.8162 28.4492 23.5377 29.7251L25.3027 31.4901Z" fill="white"/>
<path d="M21.7675 27.955C22.8137 26.9114 23.6434 25.6715 24.2089 24.3063C24.7743 22.9411 25.0644 21.4776 25.0625 20C25.0644 18.5223 24.7743 17.0588 24.2089 15.6936C23.6434 14.3285 22.8137 13.0885 21.7675 12.045L20 13.8125C20.8137 14.6241 21.459 15.5886 21.8988 16.6505C22.3385 17.7123 22.5641 18.8506 22.5625 20C22.5639 21.1493 22.3383 22.2875 21.8986 23.3494C21.4588 24.4112 20.8136 25.3757 20 26.1875L21.7675 27.955ZM16.7925 8.87496C17.0043 8.97698 17.183 9.13666 17.3081 9.33565C17.4333 9.53464 17.4998 9.76489 17.5 9.99996V30C17.4997 30.2352 17.433 30.4655 17.3076 30.6645C17.1822 30.8635 17.0032 31.0231 16.7912 31.125C16.5792 31.2268 16.3427 31.2667 16.109 31.2402C15.8753 31.2137 15.6538 31.1217 15.47 30.975L9.5625 26.25H3.75C3.41848 26.25 3.10054 26.1183 2.86612 25.8838C2.6317 25.6494 2.5 25.3315 2.5 25V15C2.5 14.6684 2.6317 14.3505 2.86612 14.1161C3.10054 13.8817 3.41848 13.75 3.75 13.75H9.5625L15.47 9.02496C15.6539 8.87793 15.8757 8.78584 16.1096 8.75931C16.3436 8.73277 16.5803 8.77286 16.7925 8.87496V8.87496Z" fill="white"/>
</svg>
