<svg width="72" height="72" viewBox="0 0 72 72" fill="none" xmlns="http://www.w3.org/2000/svg">
<path d="M47.0013 46.6382C44.2386 49.4009 40.4367 50.8981 36.432 50.8004C32.4274 50.7027 28.5479 49.0182 25.6471 46.1174C22.7463 43.2166 21.0618 39.3371 20.9641 35.3324C20.8664 31.3277 22.3636 27.5259 25.1263 24.7632C27.8889 22.0005 31.6908 20.5034 35.6955 20.601C39.7002 20.6987 43.5796 22.3832 46.4804 25.284C49.3812 28.1848 51.0658 32.0643 51.1634 36.069C51.2611 40.0737 49.7639 43.8755 47.0013 46.6382ZM48.5638 48.2007C51.7211 45.0434 53.4322 40.6984 53.3205 36.1216C53.2089 31.5448 51.2837 27.1112 47.9685 23.7959C44.6533 20.4807 40.2196 18.5556 35.6429 18.4439C31.0661 18.3323 26.7211 20.0434 23.5638 23.2007C20.4064 26.358 18.6954 30.703 18.807 35.2798C18.9186 39.8566 20.8438 44.2903 24.159 47.6055C27.4742 50.9207 31.9079 52.8459 36.4847 52.9575C41.0614 53.0691 45.4064 51.358 48.5638 48.2007Z" fill="#E8E8E8"/>
<path d="M29.8138 29.4509C30.0111 29.2536 30.2827 29.1467 30.5687 29.1536C30.8548 29.1606 31.1319 29.2809 31.3391 29.4881L36.0266 34.1756L40.4909 29.7114C40.6882 29.514 40.9597 29.4071 41.2458 29.4141C41.5318 29.421 41.809 29.5414 42.0162 29.7486C42.2234 29.9558 42.3437 30.2329 42.3507 30.5189C42.3576 30.805 42.2507 31.0765 42.0534 31.2739L37.5891 35.7381L42.2766 40.4256C42.4838 40.6328 42.6041 40.9099 42.6111 41.196C42.618 41.482 42.5111 41.7536 42.3138 41.9509C42.1164 42.1483 41.8449 42.2552 41.5588 42.2482C41.2728 42.2413 40.9957 42.1209 40.7885 41.9137L36.101 37.2262L31.6367 41.6905C31.4394 41.8879 31.1678 41.9948 30.8817 41.9878C30.5957 41.9808 30.3186 41.8605 30.1114 41.6533C29.9042 41.4461 29.7839 41.169 29.7769 40.883C29.7699 40.5969 29.8769 40.3254 30.0742 40.128L34.5385 35.6637L29.851 30.9762C29.6438 30.769 29.5234 30.4919 29.5165 30.2059C29.5095 29.9198 29.6164 29.6483 29.8138 29.4509Z" fill="#E8E8E8"/>
</svg>
