<svg width="40" height="40" viewBox="0 0 40 40" fill="none" xmlns="http://www.w3.org/2000/svg">
<path d="M26.7925 8.87496C27.0043 8.97698 27.183 9.13666 27.3081 9.33565C27.4333 9.53464 27.4998 9.76489 27.5 9.99996V30C27.4997 30.2352 27.433 30.4655 27.3076 30.6645C27.1822 30.8635 27.0032 31.0231 26.7912 31.125C26.5792 31.2268 26.3427 31.2667 26.109 31.2402C25.8753 31.2137 25.6538 31.1217 25.47 30.975L19.5625 26.25H13.75C13.4185 26.25 13.1005 26.1183 12.8661 25.8838C12.6317 25.6494 12.5 25.3315 12.5 25V15C12.5 14.6684 12.6317 14.3505 12.8661 14.1161C13.1005 13.8817 13.4185 13.75 13.75 13.75H19.5625L25.47 9.02496C25.6539 8.87793 25.8757 8.78584 26.1096 8.75931C26.3436 8.73277 26.5803 8.77286 26.7925 8.87496V8.87496Z" fill="white"/>
</svg>
