<svg width="60" height="60" viewBox="0 0 60 60" fill="none" xmlns="http://www.w3.org/2000/svg">
<circle cx="30" cy="30" r="29" stroke="#E8E8E8" stroke-width="2"/>
<path d="M34.27 25.1875L26.71 26.135L26.44 27.39L27.9275 27.66C28.895 27.8925 29.0875 28.24 28.8775 29.2075L26.44 40.65C25.8025 43.6075 26.79 45 29.1075 45C30.9075 45 32.9925 44.17 33.94 43.0275L34.23 41.655C33.5725 42.235 32.605 42.4675 31.9675 42.4675C31.06 42.4675 30.7325 41.83 30.9625 40.7075L34.27 25.1875ZM34.4975 18.3C34.4975 19.1752 34.1498 20.0146 33.5309 20.6335C32.9121 21.2523 32.0727 21.6 31.1975 21.6C30.3223 21.6 29.4829 21.2523 28.864 20.6335C28.2452 20.0146 27.8975 19.1752 27.8975 18.3C27.8975 17.4248 28.2452 16.5854 28.864 15.9665C29.4829 15.3477 30.3223 15 31.1975 15C32.0727 15 32.9121 15.3477 33.5309 15.9665C34.1498 16.5854 34.4975 17.4248 34.4975 18.3Z" fill="#E8E8E8"/>
</svg>
