<svg width="40" height="40" viewBox="0 0 40 40" fill="none" xmlns="http://www.w3.org/2000/svg">
<g clip-path="url(#clip0_203_48)">
<path d="M20 37.5C15.3587 37.5 10.9075 35.6563 7.62563 32.3744C4.34374 29.0925 2.5 24.6413 2.5 20C2.5 15.3587 4.34374 10.9075 7.62563 7.62563C10.9075 4.34374 15.3587 2.5 20 2.5C24.6413 2.5 29.0925 4.34374 32.3744 7.62563C35.6563 10.9075 37.5 15.3587 37.5 20C37.5 24.6413 35.6563 29.0925 32.3744 32.3744C29.0925 35.6563 24.6413 37.5 20 37.5ZM20 40C25.3043 40 30.3914 37.8929 34.1421 34.1421C37.8929 30.3914 40 25.3043 40 20C40 14.6957 37.8929 9.60859 34.1421 5.85786C30.3914 2.10714 25.3043 0 20 0C14.6957 0 9.60859 2.10714 5.85786 5.85786C2.10714 9.60859 0 14.6957 0 20C0 25.3043 2.10714 30.3914 5.85786 34.1421C9.60859 37.8929 14.6957 40 20 40Z" fill="#E8E8E8"/>
<path d="M11.615 11.6149C11.7312 11.4985 11.8691 11.4061 12.021 11.3431C12.1728 11.2801 12.3356 11.2477 12.5 11.2477C12.6645 11.2477 12.8273 11.2801 12.9791 11.3431C13.131 11.4061 13.2689 11.4985 13.385 11.6149L20 18.2324L26.615 11.6149C26.7313 11.4987 26.8692 11.4065 27.0211 11.3436C27.1729 11.2807 27.3357 11.2483 27.5 11.2483C27.6644 11.2483 27.8271 11.2807 27.979 11.3436C28.1308 11.4065 28.2688 11.4987 28.385 11.6149C28.5013 11.7311 28.5934 11.8691 28.6563 12.021C28.7192 12.1728 28.7516 12.3356 28.7516 12.4999C28.7516 12.6643 28.7192 12.827 28.6563 12.9789C28.5934 13.1307 28.5013 13.2687 28.385 13.3849L21.7675 19.9999L28.385 26.6149C28.5013 26.7311 28.5934 26.8691 28.6563 27.021C28.7192 27.1728 28.7516 27.3356 28.7516 27.4999C28.7516 27.6643 28.7192 27.827 28.6563 27.9789C28.5934 28.1307 28.5013 28.2687 28.385 28.3849C28.2688 28.5011 28.1308 28.5933 27.979 28.6562C27.8271 28.7191 27.6644 28.7515 27.5 28.7515C27.3357 28.7515 27.1729 28.7191 27.0211 28.6562C26.8692 28.5933 26.7313 28.5011 26.615 28.3849L20 21.7674L13.385 28.3849C13.2688 28.5011 13.1308 28.5933 12.979 28.6562C12.8271 28.7191 12.6644 28.7515 12.5 28.7515C12.3357 28.7515 12.1729 28.7191 12.0211 28.6562C11.8692 28.5933 11.7313 28.5011 11.615 28.3849C11.4988 28.2687 11.4066 28.1307 11.3437 27.9789C11.2808 27.827 11.2485 27.6643 11.2485 27.4999C11.2485 27.3356 11.2808 27.1728 11.3437 27.021C11.4066 26.8691 11.4988 26.7311 11.615 26.6149L18.2325 19.9999L11.615 13.3849C11.4986 13.2688 11.4063 13.1309 11.3433 12.979C11.2802 12.8271 11.2478 12.6643 11.2478 12.4999C11.2478 12.3355 11.2802 12.1727 11.3433 12.0208C11.4063 11.869 11.4986 11.731 11.615 11.6149Z" fill="#E8E8E8"/>
</g>
<defs>
<clipPath id="clip0_203_48">
<rect width="40" height="40" fill="white"/>
</clipPath>
</defs>
</svg>
