<svg width="40" height="40" viewBox="0 0 40 40" fill="none" xmlns="http://www.w3.org/2000/svg">
<g clip-path="url(#clip0_209_37)">
<path d="M20 37.5C15.3587 37.5 10.9075 35.6563 7.62563 32.3744C4.34374 29.0925 2.5 24.6413 2.5 20C2.5 15.3587 4.34374 10.9075 7.62563 7.62563C10.9075 4.34374 15.3587 2.5 20 2.5C24.6413 2.5 29.0925 4.34374 32.3744 7.62563C35.6563 10.9075 37.5 15.3587 37.5 20C37.5 24.6413 35.6563 29.0925 32.3744 32.3744C29.0925 35.6563 24.6413 37.5 20 37.5ZM20 40C25.3043 40 30.3914 37.8929 34.1421 34.1421C37.8929 30.3914 40 25.3043 40 20C40 14.6957 37.8929 9.60859 34.1421 5.85786C30.3914 2.10714 25.3043 0 20 0C14.6957 0 9.60859 2.10714 5.85786 5.85786C2.10714 9.60859 0 14.6957 0 20C0 25.3043 2.10714 30.3914 5.85786 34.1421C9.60859 37.8929 14.6957 40 20 40V40Z" fill="white"/>
<path d="M13.1377 14.465C13.1343 14.5457 13.1474 14.6263 13.1763 14.7018C13.2052 14.7773 13.2492 14.846 13.3056 14.9039C13.3621 14.9617 13.4297 15.0074 13.5045 15.0381C13.5792 15.0688 13.6594 15.0839 13.7402 15.0825H15.8027C16.1477 15.0825 16.4227 14.8 16.4677 14.4575C16.6927 12.8175 17.8177 11.6225 19.8227 11.6225C21.5377 11.6225 23.1077 12.48 23.1077 14.5425C23.1077 16.13 22.1727 16.86 20.6952 17.97C19.0127 19.1925 17.6802 20.62 17.7752 22.9375L17.7827 23.48C17.7854 23.644 17.8524 23.8004 17.9693 23.9155C18.0862 24.0305 18.2437 24.095 18.4077 24.095H20.4352C20.601 24.095 20.76 24.0292 20.8772 23.9119C20.9944 23.7947 21.0602 23.6358 21.0602 23.47V23.2075C21.0602 21.4125 21.7427 20.89 23.5852 19.4925C25.1077 18.335 26.6952 17.05 26.6952 14.3525C26.6952 10.575 23.5052 8.75 20.0127 8.75C16.8452 8.75 13.3752 10.225 13.1377 14.465V14.465ZM17.0302 28.8725C17.0302 30.205 18.0927 31.19 19.5552 31.19C21.0777 31.19 22.1252 30.205 22.1252 28.8725C22.1252 27.4925 21.0752 26.5225 19.5527 26.5225C18.0927 26.5225 17.0302 27.4925 17.0302 28.8725Z" fill="white"/>
</g>
<defs>
<clipPath id="clip0_209_37">
<rect width="40" height="40" fill="white"/>
</clipPath>
</defs>
</svg>
