<svg width="24" height="24" viewBox="0 0 24 24" fill="none" xmlns="http://www.w3.org/2000/svg">
<rect width="24" height="24" rx="4" fill="#2400FF"/>
<mask id="path-2-inside-1_305_441" fill="white">
<path d="M16.4175 10.7499H21.3325C21.3919 10.7499 21.45 10.7669 21.5001 10.7987C21.5502 10.8306 21.5902 10.8761 21.6154 10.9299C21.6406 10.9837 21.6499 11.0435 21.6423 11.1024C21.6347 11.1613 21.6105 11.2168 21.5725 11.2624L19.115 14.2124C19.0857 14.2476 19.049 14.2759 19.0075 14.2953C18.966 14.3147 18.9208 14.3248 18.875 14.3248C18.8292 14.3248 18.784 14.3147 18.7425 14.2953C18.701 14.2759 18.6643 14.2476 18.635 14.2124L16.1775 11.2624C16.1395 11.2168 16.1153 11.1613 16.1077 11.1024C16.1001 11.0435 16.1094 10.9837 16.1346 10.9299C16.1598 10.8761 16.1998 10.8306 16.2499 10.7987C16.3 10.7669 16.3581 10.7499 16.4175 10.7499V10.7499ZM2.66749 13.2499H7.58249C7.64187 13.2499 7.70001 13.2329 7.75011 13.2011C7.80021 13.1692 7.84019 13.1237 7.86537 13.0699C7.89056 13.0162 7.8999 12.9563 7.8923 12.8974C7.88471 12.8385 7.86049 12.783 7.82249 12.7374L5.36499 9.78741C5.33566 9.75224 5.29896 9.72395 5.25749 9.70453C5.21601 9.68511 5.17078 9.67505 5.12499 9.67505C5.07919 9.67505 5.03396 9.68511 4.99249 9.70453C4.95101 9.72395 4.91431 9.75224 4.88499 9.78741L2.42749 12.7374C2.38948 12.783 2.36527 12.8385 2.35767 12.8974C2.35007 12.9563 2.35941 13.0162 2.3846 13.0699C2.40978 13.1237 2.44976 13.1692 2.49986 13.2011C2.54996 13.2329 2.60811 13.2499 2.66749 13.2499V13.2499Z"/>
</mask>
<path d="M16.4175 10.7499H21.3325C21.3919 10.7499 21.45 10.7669 21.5001 10.7987C21.5502 10.8306 21.5902 10.8761 21.6154 10.9299C21.6406 10.9837 21.6499 11.0435 21.6423 11.1024C21.6347 11.1613 21.6105 11.2168 21.5725 11.2624L19.115 14.2124C19.0857 14.2476 19.049 14.2759 19.0075 14.2953C18.966 14.3147 18.9208 14.3248 18.875 14.3248C18.8292 14.3248 18.784 14.3147 18.7425 14.2953C18.701 14.2759 18.6643 14.2476 18.635 14.2124L16.1775 11.2624C16.1395 11.2168 16.1153 11.1613 16.1077 11.1024C16.1001 11.0435 16.1094 10.9837 16.1346 10.9299C16.1598 10.8761 16.1998 10.8306 16.2499 10.7987C16.3 10.7669 16.3581 10.7499 16.4175 10.7499V10.7499ZM2.66749 13.2499H7.58249C7.64187 13.2499 7.70001 13.2329 7.75011 13.2011C7.80021 13.1692 7.84019 13.1237 7.86537 13.0699C7.89056 13.0162 7.8999 12.9563 7.8923 12.8974C7.88471 12.8385 7.86049 12.783 7.82249 12.7374L5.36499 9.78741C5.33566 9.75224 5.29896 9.72395 5.25749 9.70453C5.21601 9.68511 5.17078 9.67505 5.12499 9.67505C5.07919 9.67505 5.03396 9.68511 4.99249 9.70453C4.95101 9.72395 4.91431 9.75224 4.88499 9.78741L2.42749 12.7374C2.38948 12.783 2.36527 12.8385 2.35767 12.8974C2.35007 12.9563 2.35941 13.0162 2.3846 13.0699C2.40978 13.1237 2.44976 13.1692 2.49986 13.2011C2.54996 13.2329 2.60811 13.2499 2.66749 13.2499V13.2499Z" fill="white"/>
<path d="M21.3325 10.7499L21.3362 0.749908H21.3325V10.7499ZM21.5725 11.2624L29.2558 17.663L29.2562 17.6624L21.5725 11.2624ZM19.115 14.2124L26.795 20.6169L26.7983 20.613L19.115 14.2124ZM18.635 14.2124L10.9517 20.613L10.955 20.6169L18.635 14.2124ZM16.1775 11.2624L8.49374 17.6624L8.49421 17.663L16.1775 11.2624ZM16.4175 10.7499L16.4175 0.749908L16.4137 0.749909L16.4175 10.7499ZM7.58249 13.2499L7.58249 23.2499L7.58623 23.2499L7.58249 13.2499ZM7.82249 12.7374L15.5062 6.33741L15.5058 6.33684L7.82249 12.7374ZM5.36499 9.78741L13.0483 3.38684L13.045 3.38291L5.36499 9.78741ZM4.88499 9.78741L-2.79501 3.38291L-2.79829 3.38684L4.88499 9.78741ZM2.42749 12.7374L-5.25579 6.33684L-5.25626 6.33741L2.42749 12.7374ZM2.66749 13.2499L2.66374 23.2499H2.66749V13.2499ZM16.4175 20.7499H21.3325V0.749908H16.4175V20.7499ZM21.3287 20.7499C19.488 20.7492 17.6855 20.2241 16.1324 19.236L26.8678 2.36146C25.2145 1.30963 23.2957 0.750643 21.3362 0.749909L21.3287 20.7499ZM16.1324 19.236C14.5793 18.248 13.3398 16.8378 12.5592 15.1708L30.6716 6.68894C29.8405 4.91437 28.5211 3.41328 26.8678 2.36146L16.1324 19.236ZM12.5592 15.1708C11.7786 13.5039 11.489 11.649 11.7245 9.82321L31.5602 12.3816C31.8108 10.438 31.5025 8.4634 30.6716 6.68894L12.5592 15.1708ZM11.7245 9.82321C11.9599 7.99752 12.7107 6.27676 13.8887 4.86241L29.2562 17.6624C30.5103 16.1568 31.3095 14.325 31.5602 12.3816L11.7245 9.82321ZM13.8892 4.86185L11.4317 7.81185L26.7983 20.613L29.2558 17.663L13.8892 4.86185ZM11.435 7.80791C12.3443 6.71755 13.482 5.8405 14.7675 5.23866L23.2475 23.3519C24.6159 22.7112 25.8271 21.7776 26.795 20.6169L11.435 7.80791ZM14.7675 5.23866C16.0532 4.63676 17.4554 4.32477 18.875 4.32477V24.3248C20.3862 24.3248 21.8789 23.9926 23.2475 23.3519L14.7675 5.23866ZM18.875 4.32477C20.2946 4.32477 21.6968 4.63676 22.9825 5.23866L14.5025 23.3519C15.8711 23.9926 17.3638 24.3248 18.875 24.3248V4.32477ZM22.9825 5.23866C24.268 5.8405 25.4057 6.71755 26.315 7.80791L10.955 20.6169C11.9229 21.7776 13.134 22.7112 14.5025 23.3519L22.9825 5.23866ZM26.3183 7.81185L23.8608 4.86185L8.49421 17.663L10.9517 20.613L26.3183 7.81185ZM23.8612 4.86241C25.0393 6.27676 25.79 7.99752 26.0255 9.82321L6.18982 12.3816C6.44048 14.325 7.23968 16.1568 8.49374 17.6624L23.8612 4.86241ZM26.0255 9.82321C26.261 11.649 25.9714 13.5039 25.1908 15.1708L7.07842 6.68894C6.24745 8.4634 5.93915 10.438 6.18982 12.3816L26.0255 9.82321ZM25.1908 15.1708C24.4101 16.8378 23.1707 18.248 21.6176 19.236L10.8822 2.36146C9.22884 3.41328 7.90943 4.91437 7.07842 6.68894L25.1908 15.1708ZM21.6176 19.236C20.0644 20.2241 18.262 20.7492 16.4212 20.7499L16.4137 0.749909C14.4542 0.750643 12.5355 1.30963 10.8822 2.36146L21.6176 19.236ZM2.66749 23.2499H7.58249V3.24991H2.66749V23.2499ZM7.58623 23.2499C9.5458 23.2492 11.4645 22.6901 13.1178 21.6384L2.38241 4.76379C3.93548 3.77574 5.73794 3.2506 7.57874 3.24991L7.58623 23.2499ZM13.1178 21.6384C14.7711 20.5866 16.0905 19.0855 16.9216 17.3109L-1.19081 8.82899C-0.410134 7.16194 0.829329 5.75184 2.38241 4.76379L13.1178 21.6384ZM16.9216 17.3109C17.7526 15.5363 18.0608 13.5617 17.8102 11.6183L-2.02555 14.1766C-2.26101 12.351 -1.97147 10.496 -1.19081 8.82899L16.9216 17.3109ZM17.8102 11.6183C17.5595 9.67482 16.7603 7.84304 15.5062 6.33741L0.138739 19.1374C-1.03934 17.723 -1.79008 16.0023 -2.02555 14.1766L17.8102 11.6183ZM15.5058 6.33684L13.0483 3.38684L-2.31829 16.188L0.139207 19.138L15.5058 6.33684ZM13.045 3.38291C12.0772 2.22234 10.8661 1.28864 9.49747 0.647902L1.0175 18.7612C-0.268181 18.1592 -1.40585 17.2821 -2.31501 16.1919L13.045 3.38291ZM9.49747 0.647902C8.12887 0.00717058 6.63617 -0.324951 5.12499 -0.324951V19.675C3.70539 19.675 2.30315 19.3631 1.0175 18.7612L9.49747 0.647902ZM5.12499 -0.324951C3.61381 -0.324951 2.1211 0.00717058 0.752498 0.647902L9.23247 18.7612C7.94682 19.3631 6.54458 19.675 5.12499 19.675V-0.324951ZM0.752498 0.647902C-0.616126 1.28864 -1.82719 2.22234 -2.79501 3.38291L12.565 16.1919C11.6558 17.2821 10.5182 18.1592 9.23247 18.7612L0.752498 0.647902ZM-2.79829 3.38684L-5.25579 6.33684L10.1108 19.138L12.5683 16.188L-2.79829 3.38684ZM-5.25626 6.33741C-6.51034 7.84303 -7.30952 9.67481 -7.56018 11.6183L12.2755 14.1766C12.0401 16.0023 11.2893 17.723 10.1112 19.1374L-5.25626 6.33741ZM-7.56018 11.6183C-7.81083 13.5617 -7.50261 15.5363 -6.67158 17.3109L11.4408 8.82899C12.2214 10.496 12.511 12.351 12.2755 14.1766L-7.56018 11.6183ZM-6.67158 17.3109C-5.84054 19.0855 -4.5211 20.5866 -2.86784 21.6384L7.86757 4.76379C9.42063 5.75183 10.6601 7.16192 11.4408 8.82899L-6.67158 17.3109ZM-2.86784 21.6384C-1.21458 22.6901 0.704171 23.2492 2.66374 23.2499L2.67123 3.24991C4.51204 3.2506 6.3145 3.77575 7.86757 4.76379L-2.86784 21.6384Z" fill="white" mask="url(#path-2-inside-1_305_441)"/>
<mask id="path-4-inside-2_305_441" fill="white">
<path fill-rule="evenodd" clip-rule="evenodd" d="M12 5.74992C10.06 5.74992 8.32501 6.63367 7.17876 8.02242C7.12758 8.08877 7.06357 8.14414 6.99056 8.18525C6.91755 8.22636 6.83701 8.25237 6.75375 8.26173C6.67048 8.27109 6.58618 8.26362 6.50586 8.23974C6.42554 8.21587 6.35084 8.17609 6.28621 8.12278C6.22157 8.06946 6.16831 8.00368 6.1296 7.92937C6.0909 7.85505 6.06753 7.77371 6.06088 7.69019C6.05424 7.60666 6.06446 7.52265 6.09094 7.44315C6.11742 7.36365 6.15961 7.29029 6.21501 7.22742C7.13025 6.11933 8.3445 5.29744 9.71334 4.85949C11.0822 4.42155 12.548 4.38599 13.9365 4.75704C15.3249 5.12808 16.5776 5.89013 17.5455 6.95253C18.5134 8.01494 19.1558 9.33299 19.3963 10.7499H18.125C17.8364 9.33843 17.0692 8.06991 15.9532 7.15886C14.8371 6.2478 13.4407 5.7501 12 5.74992V5.74992ZM5.87501 13.2499C6.11165 14.4057 6.67045 15.471 7.48686 16.3226C8.30326 17.1742 9.34396 17.7775 10.4887 18.0628C11.6335 18.348 12.8356 18.3036 13.9561 17.9346C15.0767 17.5656 16.07 16.887 16.8213 15.9774C16.8724 15.9111 16.9364 15.8557 17.0095 15.8146C17.0825 15.7735 17.163 15.7475 17.2463 15.7381C17.3295 15.7288 17.4138 15.7362 17.4942 15.7601C17.5745 15.784 17.6492 15.8238 17.7138 15.8771C17.7785 15.9304 17.8317 15.9962 17.8704 16.0705C17.9091 16.1448 17.9325 16.2261 17.9391 16.3097C17.9458 16.3932 17.9356 16.4772 17.9091 16.5567C17.8826 16.6362 17.8404 16.7096 17.785 16.7724C16.8698 17.8805 15.6555 18.7024 14.2867 19.1404C12.9178 19.5783 11.452 19.6139 10.0635 19.2428C8.67507 18.8718 7.42239 18.1097 6.4545 17.0473C5.4866 15.9849 4.84422 14.6669 4.60376 13.2499H5.87501Z"/>
</mask>
<path fill-rule="evenodd" clip-rule="evenodd" d="M12 5.74992C10.06 5.74992 8.32501 6.63367 7.17876 8.02242C7.12758 8.08877 7.06357 8.14414 6.99056 8.18525C6.91755 8.22636 6.83701 8.25237 6.75375 8.26173C6.67048 8.27109 6.58618 8.26362 6.50586 8.23974C6.42554 8.21587 6.35084 8.17609 6.28621 8.12278C6.22157 8.06946 6.16831 8.00368 6.1296 7.92937C6.0909 7.85505 6.06753 7.77371 6.06088 7.69019C6.05424 7.60666 6.06446 7.52265 6.09094 7.44315C6.11742 7.36365 6.15961 7.29029 6.21501 7.22742C7.13025 6.11933 8.3445 5.29744 9.71334 4.85949C11.0822 4.42155 12.548 4.38599 13.9365 4.75704C15.3249 5.12808 16.5776 5.89013 17.5455 6.95253C18.5134 8.01494 19.1558 9.33299 19.3963 10.7499H18.125C17.8364 9.33843 17.0692 8.06991 15.9532 7.15886C14.8371 6.2478 13.4407 5.7501 12 5.74992V5.74992ZM5.87501 13.2499C6.11165 14.4057 6.67045 15.471 7.48686 16.3226C8.30326 17.1742 9.34396 17.7775 10.4887 18.0628C11.6335 18.348 12.8356 18.3036 13.9561 17.9346C15.0767 17.5656 16.07 16.887 16.8213 15.9774C16.8724 15.9111 16.9364 15.8557 17.0095 15.8146C17.0825 15.7735 17.163 15.7475 17.2463 15.7381C17.3295 15.7288 17.4138 15.7362 17.4942 15.7601C17.5745 15.784 17.6492 15.8238 17.7138 15.8771C17.7785 15.9304 17.8317 15.9962 17.8704 16.0705C17.9091 16.1448 17.9325 16.2261 17.9391 16.3097C17.9458 16.3932 17.9356 16.4772 17.9091 16.5567C17.8826 16.6362 17.8404 16.7096 17.785 16.7724C16.8698 17.8805 15.6555 18.7024 14.2867 19.1404C12.9178 19.5783 11.452 19.6139 10.0635 19.2428C8.67507 18.8718 7.42239 18.1097 6.4545 17.0473C5.4866 15.9849 4.84422 14.6669 4.60376 13.2499H5.87501Z" fill="white"/>
<path d="M7.17876 8.02242L-8.24581 -4.70875L-8.45522 -4.45503L-8.65618 -4.19456L7.17876 8.02242ZM6.21501 7.22742L21.2201 20.4504L21.4315 20.2105L21.6352 19.9639L6.21501 7.22742ZM19.3963 10.7499V30.7499H43.0763L39.1143 7.40368L19.3963 10.7499ZM18.125 10.7499L-1.4696 14.7563L1.80052 30.7499H18.125V10.7499ZM5.87501 13.2499L25.4685 9.23828L22.195 -6.75008H5.87501V13.2499ZM16.8213 15.9774L32.2417 28.7136L32.4533 28.4574L32.6562 28.1944L16.8213 15.9774ZM17.785 16.7724L2.77995 3.54941L2.56849 3.78937L2.3648 4.03597L17.785 16.7724ZM4.60376 13.2499V-6.75008H-19.0763L-15.1143 16.5962L4.60376 13.2499ZM12 -14.2501C3.84945 -14.2501 -3.45699 -10.5107 -8.24581 -4.70875L22.6033 20.7536C20.107 23.778 16.2706 25.7499 12 25.7499V-14.2501ZM-8.65618 -4.19456C-7.06947 -6.25115 -5.08543 -7.96769 -2.82203 -9.24212L16.8032 25.6126C19.2126 24.256 21.3246 22.4287 23.0137 20.2394L-8.65618 -4.19456ZM-2.82203 -9.24212C-0.558615 -10.5165 1.93795 -11.3228 4.51921 -11.613L8.98829 28.1365C11.7361 27.8276 14.3937 26.9693 16.8032 25.6126L-2.82203 -9.24212ZM4.51921 -11.613C7.10045 -11.9033 9.71373 -11.6715 12.2036 -10.9315L0.808081 27.411C3.45864 28.1987 6.24051 28.4454 8.98829 28.1365L4.51921 -11.613ZM12.2036 -10.9315C14.6935 -10.1915 17.0092 -8.95835 19.013 -7.30543L-6.44056 23.551C-4.3075 25.3105 -1.84243 26.6232 0.808081 27.411L12.2036 -10.9315ZM19.013 -7.30543C21.0167 -5.65253 22.6677 -3.61358 23.8676 -1.30981L-11.6084 17.1685C-10.331 19.6209 -8.57359 21.7914 -6.44056 23.551L19.013 -7.30543ZM23.8676 -1.30981C25.0676 0.993961 25.7921 3.51548 25.998 6.10483L-13.8762 9.27555C-13.657 12.0319 -12.8858 14.7161 -11.6084 17.1685L23.8676 -1.30981ZM25.998 6.10483C26.2039 8.69419 25.887 11.2985 25.0662 13.763L-12.8843 1.12334C-13.7581 3.74678 -14.0954 6.51912 -13.8762 9.27555L25.998 6.10483ZM25.0662 13.763C24.2454 16.2274 22.9374 18.5016 21.2201 20.4504L-8.79005 -5.99559C-10.6182 -3.92105 -12.0106 -1.50008 -12.8843 1.12334L25.0662 13.763ZM21.6352 19.9639C20.1106 21.8097 18.088 23.1788 15.8078 23.9083L3.6189 -14.1893C-1.39897 -12.5839 -5.85014 -9.57104 -9.2052 -5.50903L21.6352 19.9639ZM15.8078 23.9083C13.5276 24.6378 11.0858 24.6971 8.77296 24.079L19.1 -14.5649C14.0102 -15.9251 8.63678 -15.7947 3.6189 -14.1893L15.8078 23.9083ZM8.77296 24.079C6.46008 23.4609 4.37339 22.1915 2.7611 20.4218L32.3299 -6.51672C28.7819 -10.4113 24.1898 -13.2047 19.1 -14.5649L8.77296 24.079ZM2.7611 20.4218C1.1488 18.6521 0.0787343 16.4565 -0.321819 14.0962L39.1143 7.40368C38.2329 2.20951 35.878 -2.62218 32.3299 -6.51672L2.7611 20.4218ZM19.3963 -9.25008H18.125V30.7499H19.3963V-9.25008ZM37.7196 6.74353C36.5079 0.817077 33.2867 -4.50909 28.6007 -8.33437L3.30565 22.6521C0.851771 20.6489 -0.835053 17.8598 -1.4696 14.7563L37.7196 6.74353ZM28.6007 -8.33437C23.9147 -12.1597 18.0515 -14.2493 12.0025 -14.2501L11.9976 25.7499C8.82988 25.7495 5.75952 24.6552 3.30565 22.6521L28.6007 -8.33437ZM-13.7185 17.2616C-12.725 22.1144 -10.3787 26.587 -6.95083 30.1629L21.9245 2.48233C23.7196 4.35486 24.9482 6.69705 25.4685 9.23828L-13.7185 17.2616ZM-6.95083 30.1629C-3.52297 33.7387 0.846625 36.2718 5.65312 37.4694L15.3243 -1.34384C17.8413 -0.71668 20.1295 0.609792 21.9245 2.48233L-6.95083 30.1629ZM5.65312 37.4694C10.4596 38.667 15.5069 38.4804 20.2118 36.931L7.70043 -1.06192C10.1642 -1.87327 12.8073 -1.97101 15.3243 -1.34384L5.65312 37.4694ZM20.2118 36.931C24.9167 35.3817 29.0873 32.5328 32.2417 28.7136L1.4008 3.24127C3.05266 1.24127 5.23664 -0.250575 7.70043 -1.06192L20.2118 36.931ZM32.6562 28.1944C31.0695 30.251 29.0855 31.9675 26.822 33.242L7.19687 -1.61277C4.78741 -0.256104 2.67537 1.57119 0.986321 3.76044L32.6562 28.1944ZM26.822 33.242C24.5587 34.5163 22.0622 35.3227 19.4808 35.6129L15.0117 -4.13666C12.2638 -3.82771 9.60621 -2.96936 7.19687 -1.61277L26.822 33.242ZM19.4808 35.6129C16.8995 35.9031 14.2862 35.6713 11.7964 34.9313L23.1919 -3.41111C20.5415 -4.19884 17.7596 -4.44561 15.0117 -4.13666L19.4808 35.6129ZM11.7964 34.9313C9.30647 34.1913 6.9908 32.9582 4.98705 31.3053L30.4406 0.448871C28.3076 -1.31067 25.8425 -2.62335 23.1919 -3.41111L11.7964 34.9313ZM4.98705 31.3053C2.98331 29.6524 1.33236 27.6134 0.132389 25.3097L35.6084 6.8313C34.3311 4.37888 32.5736 2.2084 30.4406 0.448871L4.98705 31.3053ZM0.132389 25.3097C-1.0676 23.0058 -1.79204 20.4843 -1.99793 17.895L37.8762 14.7243C37.657 11.968 36.8859 9.28376 35.6084 6.8313L0.132389 25.3097ZM-1.99793 17.895C-2.20382 15.3058 -1.887 12.7014 -1.06617 10.2369L36.8843 22.8765C37.7581 20.253 38.0954 17.4806 37.8762 14.7243L-1.99793 17.895ZM-1.06617 10.2369C-0.245364 7.77242 1.06261 5.49819 2.77995 3.54941L32.7901 29.9954C34.6182 27.9209 36.0106 25.5 36.8843 22.8765L-1.06617 10.2369ZM2.3648 4.03597C3.88939 2.19014 5.91206 0.821043 8.19224 0.0915257L20.3811 38.1892C25.399 36.5838 29.8502 33.5709 33.2052 29.5089L2.3648 4.03597ZM8.19224 0.0915257C10.4724 -0.63799 12.9142 -0.697233 15.2271 -0.0791464L4.90002 38.5648C9.98985 39.925 15.3633 39.7946 20.3811 38.1892L8.19224 0.0915257ZM15.2271 -0.0791464C17.5399 0.538939 19.6266 1.80834 21.2389 3.57806L-8.32993 30.5166C-4.78184 34.4111 -0.189799 37.2046 4.90002 38.5648L15.2271 -0.0791464ZM21.2389 3.57806C22.8512 5.34779 23.9213 7.54338 24.3218 9.90368L-15.1143 16.5962C-14.2328 21.7903 -11.878 26.622 -8.32993 30.5166L21.2389 3.57806ZM4.60376 33.2499H5.87501V-6.75008H4.60376V33.2499Z" fill="white" mask="url(#path-4-inside-2_305_441)"/>
</svg>
