<svg width="40" height="40" viewBox="0 0 40 40" fill="none" xmlns="http://www.w3.org/2000/svg">
<path d="M27.1882 30.5175C28.5716 29.1379 29.6688 27.4985 30.4166 25.6936C31.1644 23.8886 31.5481 21.9537 31.5457 20C31.5481 18.0463 31.1644 16.1113 30.4166 14.3064C29.6688 12.5014 28.5716 10.8621 27.1882 9.48248L25.9492 10.7197C27.1699 11.937 28.1379 13.3835 28.7978 14.9762C29.4576 16.5688 29.7961 18.2761 29.794 20C29.794 23.6242 28.324 26.9055 25.9492 29.2802L27.1882 30.5175V30.5175Z" fill="white"/>
<path d="M24.7119 28.043C25.7697 26.988 26.6086 25.7343 27.1804 24.354C27.7523 22.9737 28.0457 21.4941 28.0439 20C28.0457 18.506 27.7523 17.0263 27.1804 15.646C26.6086 14.2658 25.7697 13.0121 24.7119 11.957L23.4746 13.1943C24.3697 14.087 25.0796 15.1479 25.5634 16.3158C26.0472 17.4838 26.2954 18.7358 26.2939 20C26.2959 21.2644 26.048 22.5167 25.5645 23.685C25.081 24.8532 24.3713 25.9144 23.4764 26.8075L24.7119 28.043Z" fill="white"/>
<path d="M22.2372 25.5685C22.9696 24.838 23.5504 23.97 23.9462 23.0144C24.342 22.0587 24.5451 21.0343 24.5437 19.9999C24.5451 18.9656 24.342 17.9412 23.9462 16.9855C23.5504 16.0299 22.9696 15.1619 22.2372 14.4314L21 15.6687C21.5696 16.2369 22.0213 16.912 22.3291 17.6553C22.637 18.3986 22.7949 19.1954 22.7937 19.9999C22.7948 20.8045 22.6368 21.6012 22.329 22.3445C22.0212 23.0878 21.5695 23.763 21 24.3312L22.2372 25.5685ZM18.7547 12.2124C18.903 12.2839 19.0281 12.3956 19.1157 12.5349C19.2033 12.6742 19.2498 12.8354 19.25 12.9999V27C19.2498 27.1646 19.2031 27.3258 19.1153 27.4651C19.0275 27.6044 18.9022 27.7162 18.7538 27.7874C18.6054 27.8587 18.4399 27.8867 18.2763 27.8681C18.1127 27.8495 17.9577 27.7852 17.829 27.6825L13.6937 24.375H9.625C9.39294 24.375 9.17038 24.2828 9.00628 24.1187C8.84219 23.9546 8.75 23.732 8.75 23.4999V16.4999C8.75 16.2679 8.84219 16.0453 9.00628 15.8812C9.17038 15.7171 9.39294 15.6249 9.625 15.6249H13.6937L17.829 12.3174C17.9578 12.2145 18.113 12.1501 18.2767 12.1315C18.4405 12.1129 18.6062 12.141 18.7547 12.2124V12.2124Z" fill="white"/>
<circle cx="20" cy="20" r="18.45" stroke="white" stroke-width="3.1"/>
</svg>
