<svg width="60" height="60" viewBox="0 0 60 60" fill="none" xmlns="http://www.w3.org/2000/svg">
<circle cx="30" cy="30" r="29" stroke="#E8E8E8" stroke-width="2"/>
<g clip-path="url(#clip0_19_30)">
<path d="M31.7478 16.3635C31.2922 14.5447 28.7103 14.5447 28.2528 16.3635L28.1197 16.8997C28.0418 17.2113 27.8819 17.4965 27.6567 17.7255C27.4314 17.9545 27.149 18.119 26.8387 18.2021C26.5284 18.2851 26.2015 18.2836 25.892 18.1977C25.5825 18.1117 25.3016 17.9446 25.0785 17.7135L24.6941 17.3178C23.391 15.9697 21.1541 17.2616 21.6697 19.0635L21.8197 19.596C21.9078 19.9045 21.9119 20.231 21.8315 20.5416C21.7511 20.8522 21.5891 21.1357 21.3623 21.3627C21.1355 21.5896 20.8521 21.7519 20.5416 21.8326C20.231 21.9133 19.9045 21.9095 19.596 21.8216L19.0635 21.6697C17.2635 21.1541 15.9697 23.391 17.3178 24.6941L17.7135 25.0785C17.9446 25.3016 18.1117 25.5825 18.1977 25.892C18.2836 26.2015 18.2851 26.5284 18.2021 26.8387C18.119 27.149 17.9545 27.4314 17.7255 27.6567C17.4965 27.8819 17.2113 28.0418 16.8997 28.1197L16.3635 28.2528C14.5447 28.7085 14.5447 31.2903 16.3635 31.7478L16.8997 31.881C17.2113 31.9588 17.4965 32.1187 17.7255 32.344C17.9545 32.5692 18.119 32.8517 18.2021 33.162C18.2851 33.4723 18.2836 33.7992 18.1977 34.1087C18.1117 34.4182 17.9446 34.6991 17.7135 34.9222L17.3178 35.3066C15.9697 36.6097 17.2616 38.8466 19.0635 38.331L19.596 38.181C19.9047 38.0926 20.2314 38.0885 20.5422 38.169C20.8531 38.2495 21.1367 38.4117 21.3638 38.6387C21.5908 38.8658 21.753 39.1495 21.8335 39.4603C21.914 39.7711 21.9099 40.0979 21.8216 40.4066L21.6697 40.9372C21.1541 42.7372 23.391 44.031 24.6941 42.6828L25.0785 42.2872C25.3016 42.0561 25.5825 41.8889 25.892 41.803C26.2015 41.7171 26.5284 41.7156 26.8387 41.7986C27.149 41.8816 27.4314 42.0462 27.6567 42.2752C27.8819 42.5042 28.0418 42.7893 28.1197 43.101L28.2528 43.6372C28.7085 45.456 31.2903 45.456 31.7478 43.6372L31.881 43.101C31.9588 42.7893 32.1187 42.5042 32.344 42.2752C32.5692 42.0462 32.8517 41.8816 33.162 41.7986C33.4723 41.7156 33.7992 41.7171 34.1087 41.803C34.4182 41.8889 34.6991 42.0561 34.9222 42.2872L35.3066 42.6828C36.6097 44.031 38.8466 42.7391 38.331 40.9372L38.181 40.4047C38.0926 40.096 38.0885 39.7693 38.169 39.4584C38.2495 39.1476 38.4117 38.8639 38.6387 38.6369C38.8658 38.4098 39.1495 38.2476 39.4603 38.1671C39.7711 38.0866 40.0979 38.0908 40.4066 38.1791L40.9372 38.331C42.7372 38.8466 44.031 36.6097 42.6828 35.3066L42.2872 34.9222C42.0561 34.6991 41.8889 34.4182 41.803 34.1087C41.7171 33.7992 41.7156 33.4723 41.7986 33.162C41.8816 32.8517 42.0462 32.5692 42.2752 32.344C42.5042 32.1187 42.7893 31.9588 43.101 31.881L43.6372 31.7478C45.456 31.2922 45.456 28.7103 43.6372 28.2528L43.101 28.1197C42.7893 28.0418 42.5042 27.8819 42.2752 27.6567C42.0462 27.4314 41.8816 27.149 41.7986 26.8387C41.7156 26.5284 41.7171 26.2015 41.803 25.892C41.8889 25.5825 42.0561 25.3016 42.2872 25.0785L42.6828 24.6941C44.031 23.391 42.7391 21.1541 40.9372 21.6697L40.4047 21.8197C40.0962 21.9078 39.7697 21.9119 39.4591 21.8315C39.1485 21.7511 38.865 21.5891 38.638 21.3623C38.411 21.1355 38.2488 20.8521 38.1681 20.5416C38.0874 20.231 38.0912 19.9045 38.1791 19.596L38.331 19.0635C38.8466 17.2635 36.6097 15.9697 35.3066 17.3178L34.9222 17.7135C34.6991 17.9446 34.4182 18.1117 34.1087 18.1977C33.7992 18.2836 33.4723 18.2851 33.162 18.2021C32.8517 18.119 32.5692 17.9545 32.344 17.7255C32.1187 17.4965 31.9588 17.2113 31.881 16.8997L31.7478 16.3635ZM30.0003 39.3697C28.7586 39.3873 27.5259 39.1579 26.3736 38.6949C25.2213 38.2318 24.1726 37.5444 23.2883 36.6726C22.4041 35.8007 21.7019 34.7618 21.2226 33.6162C20.7433 32.4706 20.4965 31.2412 20.4965 29.9994C20.4965 28.7576 20.7433 27.5282 21.2226 26.3826C21.7019 25.237 22.4041 24.1981 23.2883 23.3262C24.1726 22.4544 25.2213 21.7669 26.3736 21.3039C27.5259 20.8409 28.7586 20.6115 30.0003 20.6291C32.4857 20.6291 34.8694 21.6164 36.6268 23.3739C38.3843 25.1313 39.3716 27.5149 39.3716 30.0003C39.3716 32.4857 38.3843 34.8694 36.6268 36.6268C34.8694 38.3843 32.4857 39.3716 30.0003 39.3716V39.3697Z" fill="#E8E8E8"/>
</g>
<defs>
<clipPath id="clip0_19_30">
<rect width="30" height="30" fill="white" transform="translate(15 15)"/>
</clipPath>
</defs>
</svg>
