<svg width="40" height="40" viewBox="0 0 40 40" fill="none" xmlns="http://www.w3.org/2000/svg">
<g clip-path="url(#clip0_204_35)">
<path d="M26.2925 9.12362C26.5043 9.22564 26.683 9.38531 26.8081 9.58431C26.9333 9.7833 26.9998 10.0135 27 10.2486V30.2486C26.9997 30.4838 26.933 30.7142 26.8076 30.9132C26.6822 31.1122 26.5032 31.2718 26.2912 31.3736C26.0792 31.4754 25.8427 31.5154 25.609 31.4889C25.3753 31.4623 25.1538 31.3704 24.97 31.2236L19.0625 26.4986H13.25C12.9185 26.4986 12.6005 26.3669 12.3661 26.1325C12.1317 25.8981 12 25.5801 12 25.2486V15.2486C12 14.9171 12.1317 14.5992 12.3661 14.3647C12.6005 14.1303 12.9185 13.9986 13.25 13.9986H19.0625L24.97 9.27362C25.1539 9.12659 25.3757 9.0345 25.6096 9.00796C25.8436 8.98143 26.0803 9.02152 26.2925 9.12362V9.12362Z" fill="white"/>
<line x1="33.4449" y1="6.38281" x2="7.4448" y2="33.551" stroke="#D92E2C" stroke-width="4"/>
<circle cx="20" cy="20" r="18.45" stroke="white" stroke-width="3.1"/>
</g>
<defs>
<clipPath id="clip0_204_35">
<rect width="40" height="40" fill="white"/>
</clipPath>
</defs>
</svg>
